<svg version="1.1" xmlns="http://www.w3.org/2000/svg" xmlns:xlink="http://www.w3.org/1999/xlink" width="1560" height="804"><defs/><g><path fill="none" stroke="#02063B" paint-order="fill stroke markers" d=" M 20 436.7661268926068 L 21 438.48414698687225 L 22 440.1992059659501 L 23 441.9111646327476 L 24 443.6198840417988 L 25 445.32522551054103 L 26 447.02705063057135 L 27 448.7252212788794 L 28 450.419599629058 L 29 452.1100481624893 L 30 453.79642967950616 L 31 455.4786073105272 L 32 457.1564445271656 L 33 458.8298051533101 L 34 460.4985533761768 L 35 462.16255375733255 L 36 463.8216712436869 L 37 465.47577117845356 L 38 467.12471931207904 L 39 468.7683818131389 L 40 470.40662527919955 L 41 472.0393167476455 L 42 473.6663237064708 L 43 475.2875141050338 L 44 476.90275636477486 L 45 478.51191938989547 L 46 480.1148725779978 L 47 481.71148583068515 L 48 483.30162956412073 L 49 484.8851747195447 L 50 486.4619927737491 L 51 488.0319557495091 L 52 489.59493622596926 L 53 491.15080734898595 L 54 492.6994428414226 L 55 494.2407170133986 L 56 495.77450477249056 L 57 497.3006816338853 L 58 498.8191237304827 L 59 500.32970782294944 L 60 501.83231130972104 L 61 503.3268122369525 L 62 504.81308930841635 L 63 506.29102189534717 L 64 507.76049004623195 L 65 509.22137449654576 L 66 510.67355667843134 L 67 512.1169187303223 L 68 513.5513435065086 L 69 514.9767145866454 L 70 516.3929162852003 L 71 517.7998336608441 L 72 519.1973525257788 L 73 520.5853594550051 L 74 521.963741795529 L 75 523.3323876755042 L 76 524.6911860133121 L 77 526.0400265265772 L 78 527.3787997411181 L 79 528.7073969998321 L 80 530.0257104715149 L 81 531.333633159611 L 82 532.6310589108992 L 83 533.9178824241071 L 84 535.193999258458 L 85 536.4593058421474 L 86 537.713699480749 L 87 538.9570783655497 L 88 540.1893415818124 L 89 541.4103891169666 L 90 542.6201218687255 L 91 543.8184416531291 L 92 545.0052512125133 L 93 546.1804542234033 L 94 547.3439553043316 L 95 548.4956600235791 L 96 549.6354749068392 L 97 550.7633074448048 L 98 551.879066100676 L 99 552.98266031759 L 100 554.0740005259701 L 101 555.1529981507957 L 102 556.2195656187916 L 103 557.2736163655347 L 104 558.3150648424808 L 105 559.3438265239063 L 106 560.3598179137705 L 107 561.3629565524906 L 108 562.3531610236349 L 109 563.3303509605308 L 110 564.2944470527873 L 111 565.2453710527319 L 112 566.1830457817616 L 113 567.1073951366068 L 114 568.0183440955074 L 115 568.9158187243024 L 116 569.7997461824303 L 117 570.670054728841 L 118 571.5266737278182 L 119 572.3695336547125 L 120 573.198566101584 L 121 574.0137037827546 L 122 574.8148805402693 L 123 575.6020313492645 L 124 576.3750923232469 L 125 577.1340007192782 L 126 577.878694943067 L 127 578.6091145539682 L 128 579.3252002698887 L 129 580.0268939720984 L 130 580.7141387099475 L 131 581.3868787054887 L 132 582.045059358004 L 133 582.6886272484363 L 134 583.3175301437254 L 135 583.9317170010466 L 136 584.531137971954 L 137 585.1157444064257 L 138 585.6854888568132 L 139 586.2403250816915 L 140 586.7802080496123 L 141 587.3050939427593 L 142 587.8149401605041 L 143 588.3097053228636 L 144 588.7893492738591 L 145 589.2538330847748 L 146 589.7031190573175 L 147 590.1371707266765 L 148 590.5559528644826 L 149 590.9594314816684 L 150 591.3475738312253 L 151 591.7203484108627 L 152 592.0777249655641 L 153 592.4196744900428 L 154 592.7461692310958 L 155 593.057182689857 L 156 593.3526896239468 L 157 593.632666049522 L 158 593.8970892432214 L 159 594.1459377440106 L 160 594.3791913549236 L 161 594.596831144702 L 162 594.798839449332 L 163 594.9851998734771 L 164 595.1558972918095 L 165 595.3109178502376 L 166 595.4502489670301 L 167 595.5738793338376 L 168 595.68179891661 L 169 595.773998956411 L 170 595.8504719701293 L 171 595.9112117510856 L 172 595.956213369536 L 173 595.9854731730734 L 174 595.9989887869222 L 175 595.9967591141323 L 176 595.9787843356678 L 177 595.9450659103923 L 178 595.8956065749502 L 179 595.8304103435449 L 180 595.7494825076132 L 181 595.6528296353952 L 182 595.5404595714018 L 183 595.4123814357779 L 184 595.2686056235619 L 185 595.1091438038424 L 186 594.9340089188108 L 187 594.7432151827113 L 188 594.5367780806865 L 189 594.3147143675217 L 190 594.0770420662839 L 191 593.8237804668598 L 192 593.5549501243901 L 193 593.2705728576007 L 194 592.9706717470325 L 195 592.6552711331677 L 196 592.3243966144547 L 197 591.97807504523 L 198 591.6163345335387 L 199 591.2392044388541 L 200 590.8467153696935 L 201 590.4388991811346 L 202 590.0157889722306 L 203 589.5774190833226 L 204 589.1238250932538 L 205 588.655043816481 L 206 588.1711133000867 L 207 587.6720728206918 L 208 587.1579628812672 L 209 586.6288252078464 L 210 586.0847027461398 L 211 585.5256396580482 L 212 584.9516813180792 L 213 584.3628743096641 L 214 583.7592664213773 L 215 583.1409066430581 L 216 582.5078451618334 L 217 581.8601333580459 L 218 581.1978238010831 L 219 580.5209702451108 L 220 579.8296276247104 L 221 579.1238520504204 L 222 578.4037008041822 L 223 577.6692323346914 L 224 576.9205062526531 L 225 576.1575833259451 L 226 575.3805254746845 L 227 574.5893957662033 L 228 573.7842584099292 L 229 572.9651787521741 L 230 572.1322232708309 L 231 571.2854595699778 L 232 570.4249563743916 L 233 569.5507835239696 L 234 568.6630119680615 L 235 567.761713759711 L 236 566.8469620498079 L 237 565.9188310811509 L 238 564.9773961824219 L 239 564.0227337620726 L 240 563.0549213021226 L 241 562.0740373518709 L 242 561.0801615215208 L 243 560.073374475719 L 244 559.0537579270077 L 245 558.0213946291939 L 246 556.9763683706319 L 247 555.9187639674235 L 248 554.8486672565341 L 249 553.7661650888259 L 250 552.6713453220091 L 251 551.564296813511 L 252 550.445109413264 L 253 549.3138739564143 L 254 548.170682255948 L 255 547.0156270952407 L 256 545.8488022205263 L 257 544.6703023332886 L 258 543.4802230825753 L 259 542.278661057235 L 260 541.0657137780773 L 261 539.8414796899589 L 262 538.6060581537924 L 263 537.3595494384832 L 264 536.1020547127905 L 265 534.8336760371171 L 266 533.5545163552254 L 267 532.2646794858824 L 268 530.964270114434 L 269 529.6533937843083 L 270 528.3321568884492 L 271 527.000666660682 L 272 525.6590311670095 L 273 524.3073592968416 L 274 522.9457607541577 L 275 521.5743460486025 L 276 520.1932264865172 L 277 518.8025141619056 L 278 517.4023219473364 L 279 515.9927634847821 L 280 514.5739531763961 L 281 513.1460061752267 L 282 511.7090383758723 L 283 510.26316640507395 L 284 508.808507612251 L 285 507.34518005997563 L 286 505.8733025143915 L 287 504.3929944355741 L 288 502.9043759678352 L 289 501.4075679299722 L 290 499.9026918054614 L 291 498.38986973259904 L 292 496.8692244945877 L 293 495.34087950957155 L 294 493.80495882061916 L 295 492.2615870856562 L 296 490.7108895673475 L 297 489.15299212293127 L 298 487.5880211940038 L 299 486.0161037962573 L 300 484.4373675091712 L 301 482.85194046565755 L 302 481.25995134166146 L 303 479.6615293457178 L 304 478.05680420846403 L 305 476.44590617211134 L 306 474.8289659798738 L 307 473.20611486535705 L 308 471.57748454190744 L 309 469.9432071919215 L 310 468.303415456118 L 311 466.6582424227727 L 312 465.0078216169164 L 313 463.35228698949834 L 314 461.69177290651396 L 315 460.0264141380997 L 316 458.356345847595 L 317 456.681703580572 L 318 455.00262325383466 L 319 453.3192411443873 L 320 451.6316938783742 L 321 449.9401184199907 L 322 448.2446520603674 L 323 446.5454324064267 L 324 444.8425973697149 L 325 443.1362851552087 L 326 441.4266342500987 L 327 439.7137834125491 L 328 437.99787166043615 L 329 436.2790382600651 L 330 434.55742271486696 L 331 432.83316475407645 L 332 431.10640432139144 L 333 429.37728156361425 L 334 427.6459368192777 L 335 425.91251060725494 L 336 424.1771436153542 L 337 422.43997668890114 L 338 420.70115081930686 L 339 418.9608071326252 L 340 417.2190868780985 L 341 415.4761314166937 L 342 413.73208220962954 L 343 411.98708080689454 L 344 410.24126883575934 L 345 408.4947879892816 L 346 406.7477800148058 L 347 405.0003867024596 L 348 403.2527498736448 L 349 401.5050113695276 L 350 399.7573130395263 L 351 398.0097967297987 L 352 396.2626042717295 L 353 394.515877470419 L 354 392.7697580931739 L 355 391.0243878580015 L 356 389.2799084221075 L 357 387.5364613703986 L 358 385.7941882039918 L 359 384.0532303287291 L 360 382.3137290437016 L 361 380.57582552978107 L 362 378.8396608381613 L 363 377.1053758789104 L 364 375.37311140953426 L 365 373.64300802355217 L 366 371.9152061390866 L 367 370.1898459874659 L 368 368.4670676018435 L 369 366.7470108058322 L 370 365.0298152021558 L 371 363.31562016131943 L 372 361.60456481029695 L 373 359.8967880212398 L 374 358.1924284002058 L 375 356.4916242759096 L 376 354.7945136884959 L 377 353.1012343783354 L 378 351.41192377484606 L 379 349.7267189853386 L 380 348.0457567838894 L 381 346.3691736002388 L 382 344.6971055087187 L 383 343.0296882172087 L 384 341.3670570561211 L 385 339.7093469674184 L 386 338.05669249366014 L 387 336.4092277670835 L 388 334.7670864987172 L 389 333.130401967529 L 390 331.49930700960863 L 391 329.87393400738654 L 392 328.25441487888963 L 393 326.6408810670345 L 394 325.0334635289591 L 395 323.43229272539463 L 396 321.8374986100763 L 397 320.24921061919684 L 398 318.6675576609007 L 399 317.0926681048219 L 400 315.52466977166523 L 401 313.9636899228324 L 402 312.40985525009256 L 403 310.8632918653007 L 404 309.3241252901616 L 405 307.7924804460424 L 406 306.2684816438339 L 407 304.75225257386114 L 408 303.2439162958443 L 409 301.74359522891166 L 410 300.251411141663 L 411 298.7674851422872 L 412 297.29193766873277 L 413 295.8248884789326 L 414 294.366456641085 L 415 292.91676052398884 L 416 291.4759177874374 L 417 290.0440453726685 L 418 288.6212594928734 L 419 287.20767562376494 L 420 285.8034084942051 L 421 284.40857207689345 L 422 283.023279579117 L 423 281.64764343356205 L 424 280.2817752891891 L 425 278.92578600217104 L 426 277.57978562689595 L 427 276.2438834070349 L 428 274.9181877666756 L 429 273.6028063015225 L 430 272.29784577016403 L 431 271.00341208540806 L 432 269.7196103056856 L 433 268.4465446265245 L 434 267.18431837209226 L 435 265.9330339868104 L 436 264.6927930270398 L 437 263.4636961528381 L 438 262.2458431197904 L 439 261.0393327709121 L 440 259.84426302862755 L 441 258.66073088682197 L 442 257.48883240296914 L 443 256.328662690336 L 444 255.18031591026192 L 445 254.04388526451737 L 446 252.91946298773925 L 447 251.80714033994454 L 448 250.7070075991242 L 449 249.61915405391537 L 450 248.54366799635508 L 451 247.48063671471422 L 452 246.4301464864125 L 453 245.39228257101703 L 454 244.36712920332153 L 455 243.35476958651037 L 456 242.35528588540555 L 457 241.3687592197975 L 458 240.3952696578622 L 459 239.43489620966176 L 460 238.48771682073254 L 461 237.55380836575875 L 462 236.63324664233278 L 463 235.7261063648041 L 464 234.83246115821453 L 465 233.95238355232323 L 466 233.08594497572 L 467 232.23321575002765 L 468 231.39426508419513 L 469 230.56916106887982 L 470 229.7579706709217 L 471 228.96075972790808 L 472 228.17759294282965 L 473 227.40853387882981 L 474 226.65364495404532 L 475 225.91298743654025 L 476 225.1866214393338 L 477 224.47460591552093 L 478 223.77699865348802 L 479 223.09385627222258 L 480 222.42523421671763 L 481 221.7711867534722 L 482 221.13176696608647 L 483 220.50702675095397 L 484 219.89701681304908 L 485 219.30178666181186 L 486 218.72138460713006 L 487 218.1558577554177 L 488 217.6052520057924 L 489 217.06961204634976 L 490 216.54898135053637 L 491 216.04340217362176 L 492 215.55291554926848 L 493 215.07756128620204 L 494 214.6173779649799 L 495 214.17240293486014 L 496 213.7426723107702 L 497 213.32822097037555 L 498 212.92908255124928 L 499 212.54528944814183 L 500 212.17687281035163 L 501 211.82386253919734 L 502 211.4862872855906 L 503 211.16417444771108 L 504 210.85755016878244 L 505 210.5664393349507 L 506 210.29086557326437 L 507 210.03085124975692 L 508 209.78641746763134 L 509 209.55758406554762 L 510 209.34436961601236 L 511 209.1467914238716 L 512 208.96486552490614 L 513 208.7986066845302 L 514 208.648028396593 L 515 208.51314288228346 L 516 208.39396108913857 L 517 208.2904926901545 L 518 208.20274608300193 L 519 208.13072838934406 L 520 208.074445454259 L 521 208.03390184576514 L 522 208.0091008544504 L 523 208.00004449320528 L 524 208.0067334970594 L 525 208.02916732312184 L 526 208.06734415062533 L 527 208.12126088107382 L 528 208.19091313849415 L 529 208.27629526979104 L 530 208.37740034520604 L 531 208.49422015887998 L 532 208.6267452295188 L 533 208.77496480116324 L 534 208.93886684406166 L 535 209.11843805564664 L 536 209.31366386161434 L 537 209.52452841710755 L 538 209.7510146080017 L 539 209.99310405229372 L 540 210.25077710159417 L 541 210.52401284272176 L 542 210.81278909940076 L 543 211.11708243406093 L 544 211.43686814973955 L 545 211.77212029208619 L 546 212.12281165146888 L 547 212.48891376518267 L 548 212.87039691975974 L 549 213.26723015338084 L 550 213.6793812583884 L 551 214.10681678390034 L 552 214.5495020385252 L 553 215.00740109317763 L 554 215.48047678399448 L 555 215.96869071535113 L 556 216.47200326297772 L 557 216.990373577175 L 558 217.52375958613004 L 559 218.0721179993305 L 560 218.63540431107853 L 561 219.21357280410263 L 562 219.80657655326814 L 563 220.4143674293862 L 564 221.0368961031193 L 565 221.6741120489856 L 566 222.3259635494592 L 567 222.99239769916778 L 568 223.67336040918667 L 569 224.3687964114284 L 570 225.0786492631288 L 571 225.8028613514276 L 572 226.54137389804455 L 573 227.29412696405018 L 574 228.0610594547301 L 575 228.842109124544 L 576 229.6372125821772 L 577 230.44630529568582 L 578 231.26932159773443 L 579 232.10619469092535 L 580 232.95685665322046 L 581 233.82123844345347 L 582 234.69926990693364 L 583 235.59087978113985 L 584 236.49599570150386 L 585 237.41454420728388 L 586 238.34645074752703 L 587 239.29163968711927 L 588 240.25003431292492 L 589 241.2215568400122 L 590 242.20612841796657 L 591 243.20366913729075 L 592 244.2140980358895 L 593 245.23733310564154 L 594 246.2732912990548 L 595 247.3218885360069 L 596 248.38303971056953 L 597 249.4566586979152 L 598 250.54265836130796 L 599 251.6409505591749 L 600 252.75144615226023 L 601 253.87405501086025 L 602 255.0086860221376 L 603 256.1552470975172 L 604 257.3136451801592 L 605 258.48378625251246 L 606 259.6655753439451 L 607 260.8589165384518 L 608 262.0637129824394 L 609 263.27986689258717 L 610 264.50727956378284 L 611 265.7458513771346 L 612 266.99548180805533 L 613 268.256069434422 L 614 269.52751194480686 L 615 270.8097061467814 L 616 272.1025479752918 L 617 273.4059325011045 L 618 274.71975393932314 L 619 276.04390565797365 L 620 277.3782801866588 L 621 278.722769225281 L 622 280.07726365283173 L 623 281.44165353624834 L 624 282.815828139336 L 625 284.19967593175545 L 626 285.59308459807534 L 627 286.9959410468871 L 628 288.4081314199845 L 629 289.8295411016041 L 630 291.2600547277275 L 631 292.6995561954452 L 632 294.1479286723789 L 633 295.6050546061644 L 634 297.0708157339919 L 635 298.5450930922045 L 636 300.0277670259543 L 637 301.51871719891204 L 638 303.01782260303594 L 639 304.5249615683912 L 640 306.0400117730254 L 641 307.56285025289736 L 642 309.09335341185545 L 643 310.63139703167 L 644 312.17685628211507 L 645 313.729605731099 L 646 315.28951935484577 L 647 316.85647054812256 L 648 318.4303321345153 L 649 320.01097637675116 L 650 321.598274987065 L 651 323.1920991376124 L 652 324.79231947092455 L 653 326.39880611040775 L 654 328.0114286708846 L 655 329.6300562691753 L 656 331.25455753472187 L 657 332.88480062024877 L 658 334.5206532124648 L 659 336.1619825428022 L 660 337.8086553981911 L 661 339.4605381318728 L 662 341.11749667424556 L 663 342.7793965437463 L 664 344.4461028577662 L 665 346.11748034359636 L 666 347.7933933494084 L 667 349.47370585526295 L 668 351.1582814841498 L 669 352.846983513057 L 670 354.53967488406613 L 671 356.2362182154778 L 672 357.9364758129605 L 673 359.64030968072655 L 674 361.34758153273265 L 675 363.0581528039022 L 676 364.7718846613727 L 677 366.4886380157629 L 678 368.20827353246136 L 679 369.9306516429362 L 680 371.65563255606133 L 681 373.3830762694634 L 682 375.11284258088347 L 683 376.8447910995567 L 684 378.5787812576069 L 685 380.31467232145474 L 686 382.0523234032403 L 687 383.7915934722575 L 688 385.5323413664003 L 689 387.2744258036206 L 690 389.0177053933932 L 691 390.76203864819325 L 692 392.507283994978 L 693 394.25329978667787 L 694 395.9999443136931 L 695 397.7470758153942 L 696 399.4945524916281 L 697 401.2422325142271 L 698 402.98997403851905 L 699 404.7376352148408 L 700 406.4850742000499 L 701 408.2321491690373 L 702 409.97871832623866 L 703 411.72463991714153 L 704 413.46977223979155 L 705 415.21397365629247 L 706 416.9571026043017 L 707 418.6990176085207 L 708 420.43957729217584 L 709 422.17864038849444 L 710 423.9160657521687 L 711 425.6517123708122 L 712 427.38543937640475 L 713 429.1171060567247 L 714 430.84657186677043 L 715 432.5736964401664 L 716 434.29833960055544 L 717 436.02036137297694 L 718 437.73962199522566 L 719 439.45598192919687 L 720 441.16930187220987 L 721 442.87944276831496 L 722 444.5862658195797 L 723 446.28963249735284 L 724 447.9894045535091 L 725 449.68544403166806 L 726 451.37761327839183 L 727 453.0657749543575 L 728 454.7497920455027 L 729 456.4295278741473 L 730 458.10484611008513 L 731 459.7756107816494 L 732 461.44168628674873 L 733 463.10293740387186 L 734 464.75922930306365 L 735 466.41042755686703 L 736 468.05639815123374 L 737 469.6970074964018 L 738 471.33212243773664 L 739 472.9616102665393 L 740 474.58533873081666 L 741 476.2031760460151 L 742 477.8149909057171 L 743 479.42065249229734 L 744 481.02003048754125 L 745 482.61299508322054 L 746 484.1994169916294 L 747 485.779167456078 L 748 487.35211826134173 L 749 488.9181417440683 L 750 490.4771108031383 L 751 492.0288989099812 L 752 493.5733801188452 L 753 495.11042907701835 L 754 496.63992103500277 L 755 498.16173185663973 L 756 499.67573802918423 L 757 501.18181667333033 L 758 502.6798455531832 L 759 504.1697030861805 L 760 505.65126835296087 L 761 507.12442110717654 L 762 508.58904178525427 L 763 510.045011516098 L 764 511.49221213073724 L 765 512.9305261719182 L 766 514.3598369036363 L 767 515.7800283206107 L 768 517.1909851576995 L 769 518.5925928992551 L 770 519.9847377884187 L 771 521.3673068363518 L 772 522.7401878314081 L 773 524.10326934824 L 774 525.4564407568416 L 775 526.799592231529 L 776 528.1326147598525 L 777 529.455400151445 L 778 530.7678410468031 L 779 532.0698309259996 L 780 533.3612641173299 L 781 534.6420358058882 L 782 535.9120420420741 L 783 537.1711797500294 L 784 538.4193467360044 L 785 539.6564416966517 L 786 540.8823642272479 L 787 542.0970148298436 L 788 543.3002949213378 L 789 544.4921068414791 L 790 545.6723538607929 L 791 546.8409401884313 L 792 547.997770979948 L 793 549.1427523449958 L 794 550.2757913549469 L 795 551.3967960504357 L 796 552.5056754488214 L 797 553.6023395515736 L 798 554.6866993515753 L 799 555.7586668403476 L 800 556.8181550151933 L 801 557.8650778862564 L 802 558.8993504835031 L 803 559.9208888636169 L 804 560.929610116812 L 805 561.9254323735624 L 806 562.9082748112464 L 807 563.8780576607062 L 808 564.834702212723 L 809 565.7781308244037 L 810 566.7082669254837 L 811 567.6250350245411 L 812 568.5283607151235 L 813 569.4181706817875 L 814 570.2943927060484 L 815 571.156955672242 L 816 572.0057895732965 L 817 572.8408255164143 L 818 573.6619957286632 L 819 574.4692335624776 L 820 575.2624735010671 L 821 576.0416511637342 L 822 576.8067033110995 L 823 577.5575678502345 L 824 578.2941838397008 L 825 579.016491494497 L 826 579.7244321909096 L 827 580.4179484712722 L 828 581.0969840486285 L 829 581.7614838113004 L 830 582.4113938273614 L 831 583.0466613490133 L 832 583.6672348168676 L 833 584.2730638641302 L 834 584.8640993206891 L 835 585.4402932171054 L 836 586.0015987885058 L 837 586.5479704783794 L 838 587.0793639422739 L 839 587.5957360513955 L 840 588.0970448961087 L 841 588.5832497893385 L 842 589.0543112698718 L 843 589.5101911055608 L 844 589.9508522964254 L 845 590.3762590776569 L 846 590.78637692252 L 847 591.1811725451555 L 848 591.5606139032819 L 849 591.9246702007955 L 850 592.2733118902704 L 851 592.6065106753564 L 852 592.9242395130755 L 853 593.2264726160167 L 854 593.5131854544295 L 855 593.784354758214 L 856 594.0399585188102 L 857 594.2799759909836 L 858 594.5043876945097 L 859 594.7131754157541 L 860 594.9063222091519 L 861 595.0838123985818 L 862 595.2456315786395 L 863 595.3917666158061 L 864 595.5222056495144 L 865 595.6369380931112 L 866 595.7359546347172 L 867 595.8192472379822 L 868 595.8868091427372 L 869 595.9386348655435 L 870 595.9747202001378 L 871 595.995062217773 L 872 595.9996592674567 L 873 595.9885109760844 L 874 595.9616182484704 L 875 595.9189832672739 L 876 595.8606094928224 L 877 595.7865016628302 L 878 595.6966657920145 L 879 595.5911091716066 L 880 595.4698403687609 L 881 595.3328692258586 L 882 595.1802068597101 L 883 595.0118656606514 L 884 594.8278592915397 L 885 594.6282026866436 L 886 594.4129120504313 L 887 594.1820048562557 L 888 593.9354998449361 L 889 593.6734170232367 L 890 593.3957776622434 L 891 593.1026042956373 L 892 592.7939207178654 L 893 592.4697519822099 L 894 592.1301243987549 L 895 591.7750655322502 L 896 591.4046041998754 L 897 591.0187704688996 L 898 590.6175956542422 L 899 590.2011123159311 L 900 589.7693542564596 L 901 589.3223565180433 L 902 588.8601553797761 L 903 588.3827883546855 L 904 587.8902941866882 L 905 587.3827128474452 L 906 586.8600855331183 L 907 586.3224546610255 L 908 585.7698638661996 L 909 585.2023579978455 L 910 584.6199831157014 L 911 584.0227864862994 L 912 583.4108165791298 L 913 582.7841230627071 L 914 582.142756800539 L 915 581.486769846998 L 916 580.816215443097 L 917 580.1311480121673 L 918 579.4316231554425 L 919 578.717697647545 L 920 577.9894294318791 L 921 577.246877615927 L 922 576.4901024664521 L 923 575.7191654046079 L 924 574.9341290009525 L 925 574.1350569703707 L 926 573.3220141669026 L 927 572.4950665784793 L 928 571.6542813215685 L 929 570.7997266357263 L 930 569.9314718780588 L 931 569.0495875175936 L 932 568.1541451295593 L 933 567.2452173895774 L 934 566.3228780677634 L 935 565.3872020227395 L 936 564.438265195559 L 937 563.4761446035424 L 938 562.5009183340272 L 939 561.51266553803 L 940 560.511466423822 L 941 559.4974022504201 L 942 558.4705553209905 L 943 557.4310089761698 L 944 556.3788475873008 L 945 555.3141565495848 L 946 554.2370222751501 L 947 553.14753218604 L 948 552.0457747071157 L 949 550.9318392588809 L 950 549.8058162502243 L 951 548.6677970710812 L 952 547.5178740850165 L 953 546.3561406217277 L 954 545.1826909694714 L 955 543.9976203674096 L 956 542.8010249978804 L 957 541.5930019785917 L 958 540.3736493547382 L 959 539.143066091045 L 960 537.9013520637349 L 961 536.6486080524222 L 962 535.384935731934 L 963 534.1104376640562 L 964 532.8252172892119 L 965 531.5293789180644 L 966 530.2230277230515 L 967 528.9062697298498 L 968 527.5792118087686 L 969 526.2419616660778 L 970 524.8946278352646 L 971 523.5373196682257 L 972 522.170147326392 L 973 520.7932217717866 L 974 519.4066547580211 L 975 518.0105588212235 L 976 516.6050472709055 L 977 515.1902341807665 L 978 513.7662343794334 L 979 512.3331634411433 L 980 510.89113767636155 L 981 509.44027412234266 L 982 507.9806905336313 L 983 506.51250537250394 L 984 505.0358377993564 L 985 503.55080766303075 L 986 502.0575354910892 L 987 500.55614248003167 L 988 499.04675048545823 L 989 497.52948201218106 L 990 496.0044602042802 L 991 494.4718088351095 L 992 492.9316522972514 L 993 491.38411559241945 L 994 489.829324321315 L 995 488.26740467343217 L 996 486.698483416816 L 997 485.12268788777425 L 998 483.5401459805415 L 999 481.9509861369008 L 1000 480.3553373357575 L 1001 478.7533290826721 L 1002 477.1450913993491 L 1003 475.5307548130832 L 1004 473.9104503461674 L 1005 472.2843095052576 L 1006 470.6524642706998 L 1007 469.01504708581854 L 1008 467.37219084616623 L 1009 465.7240288887393 L 1010 464.0706949811549 L 1011 462.4123233107942 L 1012 460.7490484739123 L 1013 459.0810054647125 L 1014 457.4083296643921 L 1015 455.73115683015317 L 1016 454.04962308418476 L 1017 452.3638649026151 L 1018 450.67401910443397 L 1019 448.98022284038984 L 1020 447.28261358185745 L 1021 445.58132910968067 L 1022 443.8765075029902 L 1023 442.1682871279956 L 1024 440.4568066267572 L 1025 438.7422049059324 L 1026 437.02462112550205 L 1027 435.3041946874764 L 1028 433.58106522457945 L 1029 431.85537258891844 L 1030 430.1272568406317 L 1031 428.3968582365214 L 1032 426.66431721867053 L 1033 424.9297744030431 L 1034 423.19337056807325 L 1035 421.4552466432384 L 1036 419.71554369762134 L 1037 417.97440292846125 L 1038 416.2319656496923 L 1039 414.4883732804769 L 1040 412.7437673337259 L 1041 410.99828940461407 L 1042 409.25208115908794 L 1043 407.5052843223668 L 1044 405.75804066744195 L 1045 404.01049200356897 L 1046 402.26278016475845 L 1047 400.5150469982649 L 1048 398.76743435307264 L 1049 397.02008406838553 L 1050 395.2731379621133 L 1051 393.526737819362 L 1052 391.7810253809265 L 1053 390.03614233178564 L 1054 388.2922302896045 L 1055 386.54943079323925 L 1056 384.80788529125005 L 1057 383.0677351304206 L 1058 381.32912154428686 L 1059 379.5921856416726 L 1060 377.85706839523914 L 1061 376.1239106300421 L 1062 374.39285301210225 L 1063 372.66403603698944 L 1064 370.9376000184179 L 1065 369.2136850768605 L 1066 367.4924311281748 L 1067 365.7739778722478 L 1068 364.05846478165785 L 1069 362.34603109035334 L 1070 360.6368157823546 L 1071 358.930957580472 L 1072 357.2285949350477 L 1073 355.5298660127187 L 1074 353.83490868520204 L 1075 352.1438605181066 L 1076 350.4568587597669 L 1077 348.77404033010407 L 1078 347.09554180951363 L 1079 345.42149942777877 L 1080 343.75204905301604 L 1081 342.0873261806465 L 1082 340.4274659223992 L 1083 338.7726029953455 L 1084 337.12287171096375 L 1085 335.4784059642407 L 1086 333.83933922280266 L 1087 332.2058045160836 L 1088 330.57793442452845 L 1089 328.9558610688315 L 1090 327.3397160992149 L 1091 325.7296306847429 L 1092 324.12573550267575 L 1093 322.52816072786436 L 1094 320.9370360221838 L 1095 319.3524905240114 L 1096 317.7746528377446 L 1097 316.2036510233636 L 1098 314.6396125860377 L 1099 313.082664465776 L 1100 311.5329330271263 L 1101 309.9905440489181 L 1102 308.45562271405413 L 1103 306.92829359935104 L 1104 305.408680665427 L 1105 303.8969072466429 L 1106 302.393096041091 L 1107 300.89736910063664 L 1108 299.40984782101293 L 1109 297.9306529319669 L 1110 296.45990448746227 L 1111 294.9977218559348 L 1112 293.5442237106044 L 1113 292.0995280198436 L 1114 290.66375203760197 L 1115 289.23701229389127 L 1116 287.8194245853265 L 1117 286.4111039657281 L 1118 285.01216473678403 L 1119 283.62272043877186 L 1120 282.24288384134536 L 1121 280.8727669343808 L 1122 279.51248091888783 L 1123 278.1621361979845 L 1124 276.82184236793603 L 1125 275.49170820926065 L 1126 274.1718416779006 L 1127 272.86234989645993 L 1128 271.56333914551055 L 1129 270.2749148549656 L 1130 268.9971815955238 L 1131 267.73024307018153 L 1132 266.4742021058161 L 1133 265.22916064484065 L 1134 263.9952197369293 L 1135 262.7724795308171 L 1136 261.56103926617095 L 1137 260.36099726553545 L 1138 259.1724509263529 L 1139 257.9954967130575 L 1140 256.83023014924777 L 1141 255.67674580993233 L 1142 254.53513731385468 L 1143 253.40549731589485 L 1144 252.28791749954874 L 1145 251.18248856948802 L 1146 250.08930024419766 L 1147 249.0084412486945 L 1148 247.93999930732613 L 1149 246.8840611366505 L 1150 245.84071243839887 L 1151 244.81003789251946 L 1152 243.79212115030478 L 1153 242.78704482760253 L 1154 241.79489049810965 L 1155 240.81573868675284 L 1156 239.84966886315215 L 1157 238.89675943517136 L 1158 237.9570877425544 L 1159 237.0307300506477 L 1160 236.11776154421125 L 1161 235.218256321316 L 1162 234.33228738732993 L 1163 233.45992664899305 L 1164 232.6012449085807 L 1165 231.756311858158 L 1166 230.92519607392296 L 1167 230.1079650106409 L 1168 229.30468499616956 L 1169 228.51542122607617 L 1170 227.74023775834533 L 1171 226.97919750818085 L 1172 226.23236224289894 L 1173 225.4997925769152 L 1174 224.78154796682506 L 1175 224.07768670657782 L 1176 223.3882659227461 L 1177 222.7133415698888 L 1178 222.05296842601007 L 1179 221.40720008811326 L 1180 220.77608896785063 L 1181 220.15968628727015 L 1182 219.5580420746578 L 1183 218.97120516047733 L 1184 218.39922317340705 L 1185 217.84214253647406 L 1186 217.30000846328682 L 1187 216.77286495436528 L 1188 216.26075479356984 L 1189 215.76371954462897 L 1190 215.2817995477654 L 1191 214.81503391642275 L 1192 214.36346053409056 L 1193 213.92711605122966 L 1194 213.5060358822977 L 1195 213.1002542028745 L 1196 212.7098039468888 L 1197 212.33471680394493 L 1198 211.97502321675097 L 1199 211.63075237864797 L 1200 211.30193223124036 L 1201 210.98858946212846 L 1202 210.69074950274242 L 1203 210.40843652627794 L 1204 210.14167344573463 L 1205 209.89048191205598 L 1206 209.6548823123725 L 1207 209.43489376834694 L 1208 209.23053413462225 L 1209 209.04181999737264 L 1210 208.86876667295712 L 1211 208.71138820667682 L 1212 208.56969737163465 L 1213 208.4437056676989 L 1214 208.33342332056975 L 1215 208.23885928094936 L 1216 208.16002122381533 L 1217 208.09691554779806 L 1218 208.0495473746611 L 1219 208.01792054888566 L 1220 208.00203763735846 L 1221 208.00189992916353 L 1222 208.0175074354775 L 1223 208.04885888956878 L 1224 208.09595174690014 L 1225 208.15878218533555 L 1226 208.23734510545012 L 1227 208.3316341309442 L 1228 208.44164160916063 L 1229 208.56735861170614 L 1230 208.7087749351758 L 1231 208.86587910198116 L 1232 209.03865836128188 L 1233 209.22709869002045 L 1234 209.43118479406053 L 1235 209.65090010942816 L 1236 209.8862268036561 L 1237 210.13714577723098 L 1238 210.4036366651438 L 1239 210.68567783854255 L 1240 210.9832464064878 L 1241 211.29631821781032 L 1242 211.62486786307144 L 1243 211.96886867662525 L 1244 212.3282927387828 L 1245 212.70311087807832 L 1246 213.09329267363648 L 1247 213.49880645764165 L 1248 213.91961931790803 L 1249 214.35569710055077 L 1250 214.8070044127583 L 1251 215.27350462566437 L 1252 215.75515987732132 L 1253 216.2519310757728 L 1254 216.7637779022265 L 1255 217.29065881432695 L 1256 217.83253104952647 L 1257 218.3893506285563 L 1258 218.96107235899595 L 1259 219.54764983894097 L 1260 220.14903546076945 L 1261 220.76518041500515 L 1262 221.39603469427965 L 1263 222.04154709739072 L 1264 222.70166523345785 L 1265 223.3763355261749 L 1266 224.0655032181576 L 1267 224.7691123753884 L 1268 225.48710589175587 L 1269 226.21942549368956 L 1270 226.96601174489 L 1271 227.72680405115193 L 1272 228.50174066528268 L 1273 229.2907586921136 L 1274 230.09379409360457 L 1275 230.9107816940421 L 1276 231.74165518532806 L 1277 232.58634713236214 L 1278 233.4447889785146 L 1279 234.31691105119074 L 1280 235.2026425674852 L 1281 236.10191163992778 L 1282 237.0146452823166 L 1283 237.94076941564276 L 1284 238.8802088741024 L 1285 239.8328874111971 L 1286 240.79872770592294 L 1287 241.77765136904495 L 1288 242.76957894945994 L 1289 243.77442994064475 L 1290 244.79212278719018 L 1291 245.82257489142083 L 1292 246.86570262009772 L 1293 247.92142131120693 L 1294 248.98964528083073 L 1295 250.07028783010153 L 1296 251.16326125223944 L 1297 252.26847683966935 L 1298 253.3858448912216 L 1299 254.51527471941185 L 1300 255.6566746578013 L 1301 256.80995206843744 L 1302 257.97501334937135 L 1303 259.15176394225534 L 1304 260.3401083400174 L 1305 261.53995009461266 L 1306 262.75119182485156 L 1307 263.97373522430286 L 1308 265.2074810692727 L 1309 266.45232922685807 L 1310 267.7081786630728 L 1311 268.9749274510493 L 1312 270.2524727793093 L 1313 271.54071096010944 L 1314 272.83953743785605 L 1315 274.1488467975914 L 1316 275.46853277354967 L 1317 276.79848825778095 L 1318 278.1386053088445 L 1319 279.48877516056996 L 1320 280.8488882308841 L 1321 282.21883413070606 L 1322 283.59850167290523 L 1323 284.9877788813261 L 1324 286.38655299987664 L 1325 287.7947105016789 L 1326 289.21213709828464 L 1327 290.6387177489494 L 1328 292.0743366699703 L 1329 293.51887734408336 L 1330 294.9722225299195 L 1331 296.43425427152147 L 1332 297.9048539079156 L 1333 299.3839020827437 L 1334 300.8712787539497 L 1335 302.3668632035226 L 1336 303.870534047295 L 1337 305.382169244793 L 1338 306.9016461091427 L 1339 308.4288413170273 L 1340 309.96363091869574 L 1341 311.50589034802397 L 1342 313.05549443262333 L 1343 314.6123174040006 L 1344 316.1762329077656 L 1345 317.7471140138859 L 1346 319.3248332269898 L 1347 320.9092624967125 L 1348 322.50027322808967 L 1349 324.0977362919947 L 1350 325.70152203561827 L 1351 327.3115002929926 L 1352 328.9275403955541 L 1353 330.5495111827499 L 1354 332.1772810126826 L 1355 333.8107177727945 L 1356 335.449688890591 L 1357 337.0940613443989 L 1358 338.7437016741636 L 1359 340.39847599228096 L 1360 342.058249994463 L 1361 343.7228889706401 L 1362 345.3922578158921 L 1363 347.066221041415 L 1364 348.7446427855171 L 1365 350.4273868246454 L 1366 352.11431658444303 L 1367 353.8052951508322 L 1368 355.50018528112724 L 1369 357.1988494151734 L 1370 358.90114968651096 L 1371 360.60694793356635 L 1372 362.3161057108631 L 1373 364.02848430026006 L 1374 365.74394472220956 L 1375 367.46234774703674 L 1376 369.1835539062411 L 1377 370.90742350381413 L 1378 372.63381662757826 L 1379 374.36259316054253 L 1380 376.09361279227386 L 1381 377.82673503028667 L 1382 379.56181921144326 L 1383 381.2987245133715 L 1384 383.0373099658941 L 1385 384.7774344624696 L 1386 386.5189567716461 L 1387 388.26173554852187 L 1388 390.00562934621837 L 1389 391.75049662736023 L 1390 393.4961957755624 L 1391 395.24258510692374 L 1392 396.9895228815279 L 1393 398.73686731494456 L 1394 400.48447658973896 L 1395 402.23220886698124 L 1396 403.97992229775804 L 1397 405.7274750346868 L 1398 407.47472524342595 L 1399 409.22153111418805 L 1400 410.96775087324886 L 1401 412.7132427944537 L 1402 414.4578652107213 L 1403 416.20147652554004 L 1404 417.9439352244612 L 1405 419.6850998865844 L 1406 421.4248291960351 L 1407 423.1629819534355 L 1408 424.8994170873624 L 1409 426.633993665798 L 1410 428.36657090756836 L 1411 430.0970081937684 L 1412 431.82516507917666 L 1413 433.5509013036518 L 1414 435.27407680351786 L 1415 436.9945517229315 L 1416 438.71218642523274 L 1417 440.42684150427954 L 1418 442.1383777957601 L 1419 443.8466563884889 L 1420 445.55153863568097 L 1421 447.252886166204 L 1422 448.9505608958104 L 1423 450.6444250383422 L 1424 452.3343411169156 L 1425 454.02017197507826 L 1426 455.701780787941 L 1427 457.37903107328395 L 1428 459.0517867026316 L 1429 460.7199119123029 L 1430 462.3832713144294 L 1431 464.04172990794325 L 1432 465.6951530895356 L 1433 467.3434066645792 L 1434 468.9863568580211 L 1435 470.62387032523986 L 1436 472.2558141628676 L 1437 473.88205591957785 L 1438 475.5024636068339 L 1439 477.1169057096023 L 1440 478.7252511970264 L 1441 480.32736953306113 L 1442 481.92313068706824 L 1443 483.51240514436836 L 1444 485.0950639167537 L 1445 486.6709785529566 L 1446 488.2400211490748 L 1447 489.8020643589532 L 1448 491.3569814045178 L 1449 492.9046460860667 L 1450 494.44493279251185 L 1451 495.97771651157416 L 1452 497.5028728399304 L 1453 499.0202779933084 L 1454 500.529808816535 L 1455 502.0313427935307 L 1456 503.5247580572536 L 1457 505.009933399591 L 1458 506.48674828119533 L 1459 507.95508284126856 L 1460 509.41481790728983 L 1461 510.8658350046876 L 1462 512.3080163664563 L 1463 513.7412449427125 L 1464 515.1654044101966 L 1465 516.5803791817133 L 1466 517.9860544155122 L 1467 519.3823160246102 L 1468 520.7690506860489 L 1469 522.1461458500937 L 1470 523.5134897493676 L 1471 524.8709714079228 L 1472 526.2184806502482 L 1473 527.5559081102103 L 1474 528.8831452399304 L 1475 530.200084318594 L 1476 531.5066184611941 L 1477 532.8026416272062 L 1478 534.088048629194 L 1479 535.3627351413472 L 1480 536.6265977079489 L 1481 537.8795337517712 L 1482 539.1214415824024 L 1483 540.3522204044984 L 1484 541.5717703259648 L 1485 542.7799923660635 L 1486 543.9767884634462 L 1487 545.1620614841142 L 1488 546.3357152293008 L 1489 547.4976544432794 L 1490 548.6477848210945 L 1491 549.7860130162159 L 1492 550.9122466481147 L 1493 552.0263943097613 L 1494 553.1283655750433 L 1495 554.218071006106 L 1496 555.2954221606097 L 1497 556.36033159891 L 1498 557.4127128911521 L 1499 558.4524806242872 L 1500 559.4795504090043 L 1501 560.4938388865795 L 1502 561.4952637356412 L 1503 562.4837436788521 L 1504 563.4591984895051 L 1505 564.4215489980348 L 1506 565.3707170984435 L 1507 566.3066257546398 L 1508 567.2291990066915 L 1509 568.1383619769902 L 1510 569.0340408763287 L 1511 569.91616300989 L 1512 570.7846567831469 L 1513 571.6394517076735 L 1514 572.4804784068654 L 1515 573.3076686215703 L 1516 574.1209552156291 L 1517 574.9202721813235 L 1518 575.7055546447347 L 1519 576.476738871007 L 1520 577.233762269522 L 1521 577.9765633989781 L 1522 578.7050819723768 L 1523 579.4192588619167 L 1524 580.119036103791 L 1525 580.8043569028932 L 1526 581.475165637426 L 1527 582.1314078634159 L 1528 582.773030319132 L 1529 583.3999809294086 L 1530 584.0122088098718 L 1531 584.6096642710695 L 1532 585.1922988225042 L 1533 585.7600651765684 L 1534 586.3129172523829 L 1535 586.8508101795366 L 1536 587.3737003017278 L 1537 587.8815451803084 L 1538 588.3743035977277 L 1539 588.8519355608773" stroke-linecap="round" stroke-linejoin="round" stroke-miterlimit="10" stroke-width="20"/></g></svg>