<?xml version="1.0" encoding="utf-8"?>
<!-- Svg Vector Icons : http://www.onlinewebfonts.com/icon -->
<!DOCTYPE svg PUBLIC "-//W3C//DTD SVG 1.1//EN" "http://www.w3.org/Graphics/SVG/1.1/DTD/svg11.dtd">
<svg version="1.1" xmlns="http://www.w3.org/2000/svg" xmlns:xlink="http://www.w3.org/1999/xlink" x="0px" y="0px" viewBox="0 0 256 256" enable-background="new 0 0 256 256" xml:space="preserve">
<metadata> Svg Vector Icons : http://www.onlinewebfonts.com/icon </metadata>
<g><g><g><path fill="#000000" d="M229.3,43.2c-11.2-10.9-26.5-16.3-46.2-16.3c-5.4,0-11,0.9-16.7,2.8c-5.7,1.9-10.9,4.4-15.8,7.6c-4.9,3.2-9.1,6.2-12.6,9c-3.5,2.8-6.9,5.8-10,8.9c-3.2-3.2-6.5-6.1-10-9c-3.5-2.8-7.7-5.8-12.6-9c-4.9-3.2-10.1-5.8-15.8-7.6c-5.7-1.9-11.2-2.8-16.7-2.8c-19.7,0-35.1,5.4-46.2,16.3C15.6,54.1,10,69.2,10,88.5c0,5.9,1,11.9,3.1,18.2c2.1,6.2,4.4,11.5,7.1,15.9c2.6,4.4,5.6,8.7,9,12.8c3.3,4.2,5.8,7,7.3,8.6c1.5,1.6,2.7,2.7,3.6,3.4l82.2,79.3c1.6,1.6,3.5,2.4,5.8,2.4s4.2-0.8,5.8-2.4l82-79C236,127.6,246,107.9,246,88.5C246,69.2,240.4,54.1,229.3,43.2z"/></g><g></g><g></g><g></g><g></g><g></g><g></g><g></g><g></g><g></g><g></g><g></g><g></g><g></g><g></g><g></g></g></g>
</svg>